# xmcd
#
# Track frame offsets:
#	150
#	14072
#	28053
#	53134
#	67218
#	79638
#	91404
#	105787
#	119128
#	145898
#	157665
#	171555
#	182639
#	196407
#	209294
#	222485
#
# Disc length: 3120 seconds
#
# Revision: 1
# Processed by: cddbd v1.5.2PL0 Copyright (c) Steve Scherf et al.
# Submitted via: EZCDAudioConverter 3.1.5.1
#
DISCID=e90c2e10
DTITLE=Various Artist - Best Of Blues 3
DYEAR=2012
DGENRE=Blues
TTITLE0=T Bone Walker - Stormy Monday
TTITLE1=Elmore James - Dusy My Broom
TTITLE2=Fury Lewis - Good Morning Judge
TTITLE3=Little Walter - You're So Fine
TTITLE4=Fats Domino - Somethings Wrong
TTITLE5=John Lee Hooker - Pouring Down Rain
TTITLE6=Howlin Wolf - Smokestack Lightnin
TTITLE7=Memphis Slim - Memphis Slim USA
TTITLE8=Mississippi Fred McDowell - 61 Highway
TTITLE9=Jalacy Hawkins - Baptize Me In Wine
TTITLE10=Albert King - Bad Luck Blues
TTITLE11=Johnny Ace - Please Forgive Me
TTITLE12=Faye Adams - Hurts Me To My Heart
TTITLE13=Jimmy Rogers - Walkin By Myself
TTITLE14=Dinah Washington - Short John
TTITLE15=Blind Willie McTel - Statesboro Blues
EXTD=
EXTT0=
EXTT1=
EXTT2=
EXTT3=
EXTT4=
EXTT5=
EXTT6=
EXTT7=
EXTT8=
EXTT9=
EXTT10=
EXTT11=
EXTT12=
EXTT13=
EXTT14=
EXTT15=
PLAYORDER=
